<svg width="80" height="80" viewBox="0 0 80 80" fill="none" xmlns="http://www.w3.org/2000/svg">
<path d="M39.82 35.45L39.66 35.58L43.77 36.45L43.92 36.48L46.01 26.62L38.18 24.94L17.56 20.54C15.26 20.05 13.06 20.13 10.97 20.79C8.88 21.44 7.06 22.61 5.53 24.29C4 25.97 2.95 28.09 2.4 30.67L0 42L8.25 43.76L10.54 32.9C10.74 31.97 11.25 31.23 12.07 30.72C12.89 30.19 13.79 30.04 14.77 30.25L27.01 32.87L33.49 27.6L39.81 35.43L39.82 35.45Z" fill="#00A1E3"/>
<path d="M45.71 40.44L45.62 40.25L43.84 44.08L43.77 44.23L52.86 48.49L56.24 41.21L65.15 22.01C66.15 19.87 66.56 17.7 66.39 15.51C66.22 13.31 65.49 11.27 64.22 9.39C62.94 7.51 61.11 6.02 58.73 4.9L48.28 0L44.72 7.68L54.74 12.37C55.6 12.77 56.19 13.44 56.52 14.35C56.84 15.27 56.79 16.19 56.36 17.09L51.07 28.49L54.73 36.02L45.71 40.44Z" fill="#FDD946"/>
<path d="M39.54 45.08L39.74 45.03L36.42 42.43L36.3 42.33L30.12 50.27L36.42 55.22L53.04 68.26C54.89 69.72 56.9 70.61 59.06 70.93C61.23 71.26 63.37 71.01 65.48 70.18C67.6 69.35 69.45 67.9 71.07 65.81L78.17 56.69L71.53 51.48L64.73 60.23C64.14 60.99 63.36 61.42 62.4 61.52C61.43 61.63 60.56 61.37 59.77 60.75L49.91 53.01L41.79 54.89L39.53 45.06L39.54 45.08Z" fill="#F8921D"/>
<path d="M36.42 38V38.22L39.66 35.59L39.82 35.46L33.5 27.63L27.02 32.9L10.89 46.02C9.07001 47.51 7.75001 49.27 6.94001 51.32C6.13001 53.37 5.89001 55.52 6.22001 57.77C6.55001 60.03 7.55001 62.18 9.20001 64.23L16.46 73.23L23 67.91L16.05 59.28C15.44 58.53 15.2 57.68 15.32 56.71C15.43 55.74 15.88 54.94 16.65 54.32L26.39 46.4V38.02H36.42V38Z" fill="#5A78BB"/>
<path d="M43.92 36.49L43.77 36.46L45.61 40.25L45.7 40.44L54.72 36.02L51.06 28.49L41.97 9.76C40.93 7.64001 39.52 5.95001 37.71 4.70001C35.91 3.45001 33.88 2.73001 31.61 2.55001C29.35 2.36001 27.04 2.85001 24.68 4.01L14.32 9.09001L18.01 16.7L27.94 11.83C28.79 11.4 29.68 11.36 30.59 11.69C31.51 12.02 32.18 12.64 32.61 13.54L38.16 24.97L45.99 26.65L43.9 36.51L43.92 36.49Z" fill="#99CC75"/>
<path d="M75.99 45.31C77.62 43.83 78.77 42 79.45 39.83C80.14 37.66 80.19 35.29 79.6 32.71L77 21.43L68.8 23.34L71.28 34.16C71.5 35.09 71.35 35.97 70.82 36.79C70.3 37.61 69.54 38.13 68.58 38.36L56.25 41.22L52.87 48.5L43.78 44.24L43.85 44.09L39.75 45.04L39.55 45.09L41.81 54.92L49.93 53.04L70.15 48.35C72.44 47.82 74.4 46.81 76.01 45.32L75.99 45.31Z" fill="#FEC40A"/>
<path d="M36.29 42.33L36.41 42.43V38H26.38V67.22C26.38 69.59 26.92 71.72 27.99 73.64C29.07 75.56 30.58 77.1 32.53 78.26C34.49 79.42 36.78 80 39.4 80H50.93V71.54H39.88C38.93 71.54 38.1 71.19 37.43 70.49C36.75 69.79 36.41 68.94 36.41 67.94V55.22L30.11 50.27L36.29 42.33Z" fill="#EB2F47"/>
</svg>
